<svg width="139" height="16" viewBox="0 0 139 16" fill="none" xmlns="http://www.w3.org/2000/svg">
<path d="M11.6218 6.16123C12.733 5.72777 13.4836 4.99759 13.4836 3.50522C13.4836 1.23322 11.8341 0.415771 9.31776 0.415771H0.267578V12.5641H10.1818C13.1229 12.5641 14.2981 11.194 14.2981 9.21286C14.2981 7.32486 13.1723 6.52486 11.6218 6.16123ZM2.03049 2.16994H9.31484C10.9963 2.16994 11.8312 2.62087 11.8312 3.83687C11.8312 5.18959 10.7694 5.43395 8.95703 5.43395H2.03049V2.16994ZM10.1818 10.8129H2.03049V7.18523H9.78903C11.5519 7.18523 12.6487 7.51395 12.6487 8.9394C12.6487 10.1176 11.9301 10.8129 10.1818 10.8129Z" fill="white"/>
<path d="M26.6007 10.0481V7.4794C26.6007 5.03286 25.1462 3.19141 21.0298 3.19141C18.9382 3.19141 17.1258 3.65978 16.6371 3.85178L17.1927 5.48377C17.6 5.32668 19.136 4.9456 21.0327 4.9456C23.8255 4.9456 24.6924 5.89978 24.8378 7.23505C23.808 6.95869 21.8007 6.73177 20.3462 6.73177C18.2545 6.73177 16.0175 7.32232 16.0175 9.59432C16.0175 11.6947 17.7658 12.8234 20.2647 12.8234C22.1265 12.8234 24.0873 12.0438 24.9193 10.9499C24.9513 11.9216 25.0996 12.8234 26.7316 12.8234C27.1738 12.8234 27.7265 12.7361 28.3985 12.5616V10.9296C28.0378 11.0343 27.712 11.0867 27.4676 11.0867C26.7462 11.0925 26.6007 10.726 26.6007 10.0481ZM24.8349 9.14633C24.5091 10.31 22.4349 11.2292 20.5702 11.2292C19.0022 11.2292 17.8094 10.6736 17.8094 9.47505C17.8094 8.31142 19.0836 8.00014 20.2589 8.00014H24.832V9.14633H24.8349Z" fill="white"/>
<path d="M31.5491 4.96305L31.5317 4.94559L31.4822 3.31358L29.7833 3.52304V12.5645H31.5462V6.49032C32.7535 5.18705 34.7142 4.85832 36.3986 5.03286L36.48 3.20886C34.4728 3.10704 32.9397 3.64523 31.5491 4.96305Z" fill="white"/>
<path d="M43.6043 10.9353L42.1003 8.22692L39.4705 3.45311H37.4109L42.752 12.6342L42.5716 12.9804C41.952 14.0917 41.0676 14.4902 40.0058 14.4902C39.2698 14.4902 38.4698 14.2982 37.8327 14.1789V15.6364C38.7142 15.8284 39.5142 15.9477 40.2327 15.9477C41.8182 15.9477 43.0574 15.3222 44.2502 13.2393L49.7891 3.4502H47.7149L43.6043 10.9353Z" fill="white"/>
<path d="M56.0873 3.19409C52.2967 3.19409 50.208 5.20719 50.208 8.00283C50.208 10.7985 52.2997 12.829 56.0873 12.829C59.8778 12.829 61.9666 10.7985 61.9666 8.00283C61.9666 5.20719 59.8749 3.19409 56.0873 3.19409ZM56.0873 11.0923C53.3906 11.0923 52.0029 9.77155 52.0029 8.00283C52.0029 6.21374 53.3906 4.93083 56.0873 4.93083C58.7666 4.93083 60.1542 6.21665 60.1542 8.00283C60.1542 9.77155 58.7637 11.0923 56.0873 11.0923Z" fill="white"/>
<path d="M73.7978 7.18558H75.4793C75.4618 8.43649 75.1214 9.37321 74.4494 9.99576C70.432 8.64303 66.3156 5.89976 66.3156 3.85176C66.3156 2.35939 68.1454 1.90849 69.9578 1.90849C71.7382 1.90849 73.8124 2.34193 74.4669 2.58629L74.8422 0.867028C73.9607 0.503391 72.0494 0.154297 70.1876 0.154297C67.4094 0.154297 64.3898 0.936842 64.3898 3.57248C64.3898 4.42193 64.7825 5.30921 65.4516 6.19357C64.3724 6.95575 63.9651 8.03212 63.9651 9.10849C63.9651 12.0409 67.0516 12.8234 70.0567 12.8234C71.8225 12.8234 73.3905 12.5296 74.6153 11.8343C76.1193 12.3027 77.5564 12.5645 78.8131 12.5645V10.8103C77.9636 10.8278 77.0153 10.6881 76.0204 10.4467C76.7215 9.68448 77.1636 8.62558 77.2131 7.18267H78.8131V5.42848H73.7978V7.18558ZM70.4989 11.2467C68.5876 11.2467 65.7629 10.7783 65.7629 8.88448C65.7629 8.3463 65.9753 7.75576 66.4989 7.25249C67.872 8.70994 70.1731 10.0132 72.3956 10.915C71.872 11.1419 71.1534 11.2467 70.4989 11.2467Z" fill="white"/>
<path d="M136.978 5.17535H126.833V3.42407H138.74V15.5724H136.978V5.17535Z" fill="white"/>
<path d="M125.443 7.91847C125.443 4.84647 123.305 3.16211 118.973 3.16211C116.605 3.16211 114.595 3.66538 114.022 3.89229L114.365 5.52429C114.839 5.3672 116.832 4.89883 119.037 4.89883C121.815 4.89883 123.218 5.69883 123.546 7.20865H114.153C113.042 10.941 115.983 12.797 119.706 12.797C123.581 12.797 125.443 10.5919 125.443 7.91847ZM123.581 8.61374C123.255 10.0537 122.258 11.0952 119.628 11.0952C117.228 11.0952 115.61 10.2807 115.872 8.61374H123.581Z" fill="white"/>
<path d="M110.351 12.6574L112.032 12.4479V0.125H110.269V3.28427L110.287 5.03846L110.269 5.05591C109.437 4.20646 107.738 3.165 105.335 3.165C101.969 3.165 100.058 5.19554 100.058 8.02608C100.058 10.7694 101.839 12.7999 105.629 12.7999C107.296 12.7999 108.995 12.3839 110.269 11.7759L110.287 11.7934L110.351 12.6574ZM110.266 10.2457C108.992 10.6792 107.261 11.0603 105.789 11.0603C102.979 11.0603 101.868 9.75699 101.868 8.00572C101.868 6.21663 103.06 4.89881 105.545 4.89881C107.718 4.89881 109.725 5.90536 110.266 6.78972V10.2457Z" fill="white"/>
<path d="M98.016 14.845L96.2531 15.0516V12.5352H93.6233V10.973H96.2531V6.37374C96.2531 5.2101 95.8924 4.74174 94.9789 4.74174C94.6182 4.74174 94.1615 4.7941 93.6233 4.88137V3.42392C94.3098 3.26683 94.9295 3.16211 95.4677 3.16211C97.0677 3.16211 98.016 3.95919 98.016 6.37374V10.973H99.1593V12.5352H98.016V14.845Z" fill="white"/>
<path d="M92.4772 7.98828C92.4772 5.19264 90.3855 3.16211 86.5979 3.16211C82.8074 3.16211 80.7186 5.19264 80.7186 7.98828C80.7186 10.7839 82.8103 12.797 86.5979 12.797C90.3884 12.797 92.4772 10.7839 92.4772 7.98828ZM90.6823 7.98828C90.6823 9.77737 89.2946 11.0603 86.5979 11.0603C83.9186 11.0603 82.531 9.77446 82.531 7.98828C82.531 6.21955 83.9186 4.89883 86.5979 4.89883C89.2917 4.89883 90.6823 6.21664 90.6823 7.98828Z" fill="white"/>
</svg>
